<svg xmlns="http://www.w3.org/2000/svg" xmlns:xlink="http://www.w3.org/1999/xlink" zoomAndPan="magnify" preserveAspectRatio="xMidYMid meet" version="1.2" viewBox="414 319 577.88 177.28"><defs><clipPath id="0e6167a548"><path d="M 414.011719 319.023438 L 591.269531 319.023438 L 591.269531 496.414062 L 414.011719 496.414062 Z M 414.011719 319.023438 "/></clipPath></defs><g id="e26b32c85f"><g clip-rule="nonzero" clip-path="url(#0e6167a548)"><path style=" stroke:none;fill-rule:nonzero;fill:#ffd600;fill-opacity:1;" d="M 502.648438 319.023438 L 591.269531 407.640625 L 591.269531 319.023438 Z M 502.648438 319.023438 L 502.648438 407.640625 L 414.019531 319.023438 Z M 502.648438 496.269531 L 414.027344 407.652344 L 502.648438 407.652344 Z M 591.269531 496.269531 L 502.648438 407.652344 L 591.269531 407.652344 Z M 591.269531 496.269531 "/></g><g style="fill:#000000;fill-opacity:1;"><g transform="translate(628.164647, 382.440006)"><path style="stroke:none" d="M 6.375 0 L 6.375 -55.734375 L 18.46875 -55.734375 L 18.46875 0 Z M 6.375 0 "/></g></g><g style="fill:#000000;fill-opacity:1;"><g transform="translate(652.994356, 382.440006)"><path style="stroke:none" d="M 41.71875 -55.734375 L 53.5 -55.734375 L 53.5 0 L 43.46875 0 L 18.234375 -34.796875 L 18.234375 0 L 6.375 0 L 6.375 -55.734375 L 17.28125 -55.734375 L 41.71875 -21.734375 Z M 41.71875 -55.734375 "/></g></g><g style="fill:#000000;fill-opacity:1;"><g transform="translate(712.84035, 382.440006)"><path style="stroke:none" d="M 44.8125 -55.734375 L 44.8125 -44.5 L 29.296875 -44.5 L 29.296875 0 L 17.203125 0 L 17.203125 -44.5 L 1.75 -44.5 L 1.75 -55.734375 Z M 44.8125 -55.734375 "/></g></g><g style="fill:#000000;fill-opacity:1;"><g transform="translate(759.316499, 382.440006)"><path style="stroke:none" d="M 28.8125 1.1875 C 24.414062 1.1875 20.488281 0.25 17.03125 -1.625 C 13.582031 -3.507812 10.847656 -6.109375 8.828125 -9.421875 C 6.816406 -12.742188 5.8125 -16.582031 5.8125 -20.9375 L 5.8125 -55.734375 L 17.90625 -55.734375 L 17.90625 -21.5 C 17.90625 -18.039062 18.925781 -15.289062 20.96875 -13.25 C 23.019531 -11.207031 25.632812 -10.1875 28.8125 -10.1875 C 32.050781 -10.1875 34.691406 -11.207031 36.734375 -13.25 C 38.785156 -15.289062 39.8125 -18.039062 39.8125 -21.5 L 39.8125 -55.734375 L 51.828125 -55.734375 L 51.828125 -20.9375 C 51.828125 -16.582031 50.832031 -12.742188 48.84375 -9.421875 C 46.851562 -6.109375 44.117188 -3.507812 40.640625 -1.625 C 37.160156 0.25 33.21875 1.1875 28.8125 1.1875 Z M 28.8125 1.1875 "/></g></g><g style="fill:#000000;fill-opacity:1;"><g transform="translate(816.934177, 382.440006)"><path style="stroke:none" d="M 6.375 0 L 6.375 -55.734375 L 18.46875 -55.734375 L 18.46875 0 Z M 6.375 0 "/></g></g><g style="fill:#000000;fill-opacity:1;"><g transform="translate(841.763886, 382.440006)"><path style="stroke:none" d="M 44.8125 -55.734375 L 44.8125 -44.5 L 29.296875 -44.5 L 29.296875 0 L 17.203125 0 L 17.203125 -44.5 L 1.75 -44.5 L 1.75 -55.734375 Z M 44.8125 -55.734375 "/></g></g><g style="fill:#000000;fill-opacity:1;"><g transform="translate(888.240035, 382.440006)"><path style="stroke:none" d="M 28.8125 1.1875 C 24.414062 1.1875 20.488281 0.25 17.03125 -1.625 C 13.582031 -3.507812 10.847656 -6.109375 8.828125 -9.421875 C 6.816406 -12.742188 5.8125 -16.582031 5.8125 -20.9375 L 5.8125 -55.734375 L 17.90625 -55.734375 L 17.90625 -21.5 C 17.90625 -18.039062 18.925781 -15.289062 20.96875 -13.25 C 23.019531 -11.207031 25.632812 -10.1875 28.8125 -10.1875 C 32.050781 -10.1875 34.691406 -11.207031 36.734375 -13.25 C 38.785156 -15.289062 39.8125 -18.039062 39.8125 -21.5 L 39.8125 -55.734375 L 51.828125 -55.734375 L 51.828125 -20.9375 C 51.828125 -16.582031 50.832031 -12.742188 48.84375 -9.421875 C 46.851562 -6.109375 44.117188 -3.507812 40.640625 -1.625 C 37.160156 0.25 33.21875 1.1875 28.8125 1.1875 Z M 28.8125 1.1875 "/></g></g><g style="fill:#000000;fill-opacity:1;"><g transform="translate(945.857713, 382.440006)"><path style="stroke:none" d="M 24.84375 1.109375 C 20.59375 1.109375 16.847656 0.34375 13.609375 -1.1875 C 10.367188 -2.726562 7.832031 -4.929688 6 -7.796875 C 4.175781 -10.660156 3.265625 -14.085938 3.265625 -18.078125 L 15.4375 -18.078125 C 15.4375 -15.367188 16.378906 -13.363281 18.265625 -12.0625 C 20.148438 -10.757812 22.316406 -10.109375 24.765625 -10.109375 C 26.296875 -10.109375 27.738281 -10.359375 29.09375 -10.859375 C 30.445312 -11.367188 31.5625 -12.113281 32.4375 -13.09375 C 33.3125 -14.070312 33.75 -15.253906 33.75 -16.640625 C 33.75 -18.066406 33.242188 -19.191406 32.234375 -20.015625 C 31.234375 -20.835938 29.882812 -21.515625 28.1875 -22.046875 C 26.488281 -22.578125 24.628906 -23.082031 22.609375 -23.5625 C 20.535156 -24.039062 18.410156 -24.625 16.234375 -25.3125 C 14.054688 -26 12.039062 -26.914062 10.1875 -28.0625 C 8.332031 -29.207031 6.847656 -30.742188 5.734375 -32.671875 C 4.617188 -34.609375 4.0625 -37.066406 4.0625 -40.046875 C 4.0625 -45.398438 5.878906 -49.523438 9.515625 -52.421875 C 13.148438 -55.316406 18.070312 -56.765625 24.28125 -56.765625 C 30.644531 -56.765625 35.578125 -55.15625 39.078125 -51.9375 C 42.585938 -48.726562 44.34375 -44.363281 44.34375 -38.84375 L 32.40625 -38.84375 C 32.40625 -41.238281 31.554688 -43.003906 29.859375 -44.140625 C 28.160156 -45.285156 26.195312 -45.859375 23.96875 -45.859375 C 22 -45.859375 20.191406 -45.429688 18.546875 -44.578125 C 16.898438 -43.734375 16.078125 -42.40625 16.078125 -40.59375 C 16.078125 -39.269531 16.566406 -38.222656 17.546875 -37.453125 C 18.535156 -36.679688 19.835938 -36.046875 21.453125 -35.546875 C 23.078125 -35.046875 24.867188 -34.554688 26.828125 -34.078125 C 28.953125 -33.546875 31.128906 -32.921875 33.359375 -32.203125 C 35.585938 -31.484375 37.65625 -30.515625 39.5625 -29.296875 C 41.476562 -28.078125 43.03125 -26.457031 44.21875 -24.4375 C 45.414062 -22.425781 46.015625 -19.878906 46.015625 -16.796875 C 46.015625 -12.765625 45.046875 -9.421875 43.109375 -6.765625 C 41.171875 -4.109375 38.609375 -2.128906 35.421875 -0.828125 C 32.242188 0.460938 28.71875 1.109375 24.84375 1.109375 Z M 24.84375 1.109375 "/></g></g><g style="fill:#000000;fill-opacity:1;"><g transform="translate(628.164647, 468.300008)"><path style="stroke:none" d="M 43.390625 0 L 39.484375 -10.59375 L 17.28125 -10.59375 L 13.453125 0 L 0.71875 0 L 22.53125 -55.734375 L 33.90625 -55.734375 L 56.4375 0 Z M 28.34375 -41 L 21.09375 -21.09375 L 35.671875 -21.09375 Z M 28.34375 -41 "/></g></g><g style="fill:#000000;fill-opacity:1;"><g transform="translate(685.304823, 468.300008)"><path style="stroke:none" d="M 27.46875 -55.734375 C 31.550781 -55.734375 35.316406 -55.039062 38.765625 -53.65625 C 42.210938 -52.28125 45.195312 -50.34375 47.71875 -47.84375 C 50.238281 -45.351562 52.203125 -42.421875 53.609375 -39.046875 C 55.023438 -35.679688 55.734375 -31.976562 55.734375 -27.9375 C 55.734375 -23.90625 55.023438 -20.191406 53.609375 -16.796875 C 52.203125 -13.398438 50.238281 -10.441406 47.71875 -7.921875 C 45.195312 -5.398438 42.210938 -3.445312 38.765625 -2.0625 C 35.316406 -0.6875 31.550781 0 27.46875 0 L 6.375 0 L 6.375 -55.734375 Z M 27.140625 -11.21875 C 30.328125 -11.21875 33.140625 -11.9375 35.578125 -13.375 C 38.023438 -14.8125 39.9375 -16.789062 41.3125 -19.3125 C 42.695312 -21.832031 43.390625 -24.707031 43.390625 -27.9375 C 43.390625 -31.175781 42.695312 -34.039062 41.3125 -36.53125 C 39.9375 -39.03125 38.023438 -40.984375 35.578125 -42.390625 C 33.140625 -43.796875 30.328125 -44.5 27.140625 -44.5 L 18.46875 -44.5 L 18.46875 -11.21875 Z M 27.140625 -11.21875 "/></g></g><g style="fill:#000000;fill-opacity:1;"><g transform="translate(744.27541, 468.300008)"><path style="stroke:none" d="M 24.84375 1.109375 C 20.59375 1.109375 16.847656 0.34375 13.609375 -1.1875 C 10.367188 -2.726562 7.832031 -4.929688 6 -7.796875 C 4.175781 -10.660156 3.265625 -14.085938 3.265625 -18.078125 L 15.4375 -18.078125 C 15.4375 -15.367188 16.378906 -13.363281 18.265625 -12.0625 C 20.148438 -10.757812 22.316406 -10.109375 24.765625 -10.109375 C 26.296875 -10.109375 27.738281 -10.359375 29.09375 -10.859375 C 30.445312 -11.367188 31.5625 -12.113281 32.4375 -13.09375 C 33.3125 -14.070312 33.75 -15.253906 33.75 -16.640625 C 33.75 -18.066406 33.242188 -19.191406 32.234375 -20.015625 C 31.234375 -20.835938 29.882812 -21.515625 28.1875 -22.046875 C 26.488281 -22.578125 24.628906 -23.082031 22.609375 -23.5625 C 20.535156 -24.039062 18.410156 -24.625 16.234375 -25.3125 C 14.054688 -26 12.039062 -26.914062 10.1875 -28.0625 C 8.332031 -29.207031 6.847656 -30.742188 5.734375 -32.671875 C 4.617188 -34.609375 4.0625 -37.066406 4.0625 -40.046875 C 4.0625 -45.398438 5.878906 -49.523438 9.515625 -52.421875 C 13.148438 -55.316406 18.070312 -56.765625 24.28125 -56.765625 C 30.644531 -56.765625 35.578125 -55.15625 39.078125 -51.9375 C 42.585938 -48.726562 44.34375 -44.363281 44.34375 -38.84375 L 32.40625 -38.84375 C 32.40625 -41.238281 31.554688 -43.003906 29.859375 -44.140625 C 28.160156 -45.285156 26.195312 -45.859375 23.96875 -45.859375 C 22 -45.859375 20.191406 -45.429688 18.546875 -44.578125 C 16.898438 -43.734375 16.078125 -42.40625 16.078125 -40.59375 C 16.078125 -39.269531 16.566406 -38.222656 17.546875 -37.453125 C 18.535156 -36.679688 19.835938 -36.046875 21.453125 -35.546875 C 23.078125 -35.046875 24.867188 -34.554688 26.828125 -34.078125 C 28.953125 -33.546875 31.128906 -32.921875 33.359375 -32.203125 C 35.585938 -31.484375 37.65625 -30.515625 39.5625 -29.296875 C 41.476562 -28.078125 43.03125 -26.457031 44.21875 -24.4375 C 45.414062 -22.425781 46.015625 -19.878906 46.015625 -16.796875 C 46.015625 -12.765625 45.046875 -9.421875 43.109375 -6.765625 C 41.171875 -4.109375 38.609375 -2.128906 35.421875 -0.828125 C 32.242188 0.460938 28.71875 1.109375 24.84375 1.109375 Z M 24.84375 1.109375 "/></g></g></g></svg>